<svg width="27" height="26" viewBox="0 0 27 26" fill="none" xmlns="http://www.w3.org/2000/svg">
<path d="M13.6217 3.15234C10.0359 3.15234 7.12174 6.06651 7.12174 9.65234V12.7832C7.12174 13.444 6.84007 14.4515 6.50424 15.0148L5.2584 17.084C4.48924 18.3623 5.02007 19.7815 6.4284 20.2582C11.0976 21.8182 16.1351 21.8182 20.8042 20.2582C22.1151 19.8248 22.6892 18.2757 21.9742 17.084L20.7284 15.0148C20.4034 14.4515 20.1217 13.444 20.1217 12.7832V9.65234C20.1217 6.07734 17.1967 3.15234 13.6217 3.15234Z" stroke="black" stroke-width="1.5" stroke-miterlimit="10" stroke-linecap="round"/>
<path d="M15.626 3.46656C15.2902 3.36906 14.9435 3.29323 14.586 3.2499C13.546 3.1199 12.5493 3.19573 11.6177 3.46656C11.9318 2.6649 12.7118 2.10156 13.6218 2.10156C14.5318 2.10156 15.3118 2.6649 15.626 3.46656Z" stroke="black" stroke-width="1.5" stroke-miterlimit="10" stroke-linecap="round" stroke-linejoin="round"/>
<path d="M16.8716 20.6484C16.8716 22.4359 15.4091 23.8984 13.6216 23.8984C12.7332 23.8984 11.9099 23.5301 11.3249 22.9451C10.7399 22.3601 10.3716 21.5368 10.3716 20.6484" stroke="black" stroke-width="1.5" stroke-miterlimit="10"/>
</svg>
