<svg width="19" height="19" viewBox="0 0 19 19" fill="none" xmlns="http://www.w3.org/2000/svg">
<path d="M0.000123978 8.87784C0.000123978 7.67358 0.428415 6.51864 1.19078 5.6671C1.95315 4.81557 2.98714 4.33718 4.06528 4.33718H7.45292C7.49526 4.33718 11.8907 4.27096 16.066 0.354638C16.2639 0.168071 16.5058 0.0492084 16.7626 0.0122965C17.0195 -0.0246154 17.2804 0.021989 17.5142 0.146524C17.7493 0.265933 17.9482 0.459235 18.0865 0.702821C18.2249 0.946406 18.2968 1.22973 18.2933 1.51818V16.2375C18.2968 16.5259 18.2249 16.8093 18.0865 17.0529C17.9482 17.2964 17.7493 17.4897 17.5142 17.6091C17.3335 17.7019 17.1371 17.7503 16.9383 17.751C16.6196 17.7534 16.3105 17.6293 16.066 17.401C12.8562 14.3928 9.52784 13.655 8.13044 13.4753V16.7956C8.13124 17.0445 8.07673 17.2898 7.97178 17.5094C7.86684 17.7289 7.71474 17.916 7.52914 18.0538L6.59754 18.7538C6.41411 18.8834 6.20656 18.9644 5.99077 18.9907C5.77499 19.0169 5.55669 18.9876 5.35258 18.9051C5.14994 18.8172 4.96937 18.6757 4.82631 18.4929C4.68325 18.31 4.58196 18.0912 4.53108 17.8551L3.52326 13.3807C2.54884 13.2302 1.65583 12.6918 1.00851 11.8645C0.361193 11.0372 0.00310516 9.97658 0.000123978 8.87784ZM16.9383 16.2375V1.51818C13.322 4.90476 9.621 5.64262 8.13044 5.80343V11.9522C9.621 12.1131 13.322 12.8509 16.9383 16.2375ZM5.84379 17.4862L6.77539 16.7956V13.4185H4.92913L5.84379 17.4862ZM4.06528 11.9049H6.77539V5.85073H4.06528C3.34652 5.85073 2.65719 6.16966 2.14895 6.73735C1.64071 7.30504 1.35518 8.075 1.35518 8.87784C1.35518 9.68067 1.64071 10.4506 2.14895 11.0183C2.65719 11.586 3.34652 11.9049 4.06528 11.9049Z" fill="#2E2D2D"/>
</svg>
