<svg width="81" height="16" viewBox="0 0 81 16" fill="none" xmlns="http://www.w3.org/2000/svg">
<g clip-path="url(#clip0_1599_17442)">
<path d="M29.5452 0.444824V7.32059H24.6542C23.8579 7.32059 23.2092 6.67232 23.2092 5.86889V0.444824H19.2725V5.88613C19.2828 8.86195 21.6853 11.2757 24.6542 11.2757H28.4434H29.5417C29.5417 11.8998 29.0372 12.4102 28.4125 12.4102H20.4257V15.4998H29.274C31.5942 15.4998 33.4751 13.6102 33.4751 11.2792V0.444824H29.5383H29.5452Z" fill="#F06A3C"/>
<path d="M12.2051 0C10.9111 0 9.72011 0.458614 8.7934 1.22757C7.86327 0.458614 6.67571 0 5.38175 0C2.40943 0 0 2.42066 0 5.40682V15.4998H3.93678V5.40682C3.93678 4.60683 4.58204 3.95512 5.38175 3.95512C6.18147 3.95512 6.82673 4.60338 6.82673 5.40682V15.4998H10.7635V5.40682C10.7635 4.60683 11.4088 3.95512 12.2085 3.95512C13.0082 3.95512 13.6535 4.60338 13.6535 5.40682V15.4998H17.5902V5.40682C17.5902 2.42066 15.1808 0 12.2085 0H12.2051Z" fill="#F06A3C"/>
<path d="M49.0531 5.85164C49.0531 2.86548 46.6437 0.444824 43.6714 0.444824H34.8643V15.4963H38.801V11.255H43.6714C44.4677 11.255 45.1164 11.9033 45.1164 12.7067V15.4963H49.0531V12.6895C49.0497 11.3964 48.5932 10.2068 47.8313 9.27918C48.5932 8.34471 49.0531 7.15163 49.0531 5.85164ZM38.801 7.30335V4.39994H43.6714C44.4677 4.39994 45.1164 5.04821 45.1164 5.85164C45.1164 6.65508 44.4711 7.30335 43.6714 7.30335H38.801Z" fill="#F06A3C"/>
<path d="M54.8443 4.44486H64.3584V0.489746H54.8202C52.2323 0.506987 50.1387 2.6173 50.1387 5.22071C50.1387 6.24829 50.4682 7.19655 51.0242 7.9724C50.4716 8.74825 50.1387 9.69651 50.1387 10.7241C50.1387 13.3206 52.2255 15.4275 54.8031 15.4516H54.8443H64.3584V11.4965H54.8443C54.4187 11.4965 54.072 11.1482 54.072 10.7206C54.072 10.2931 54.4187 9.94479 54.8443 9.94479H62.6801V5.98967H54.8443C54.4187 5.98967 54.072 5.6414 54.072 5.21382C54.072 4.78624 54.4187 4.43797 54.8443 4.43797V4.44486Z" fill="#F06A3C"/>
<path d="M76.7624 0.444765V11.1687C76.7624 11.5963 76.4157 11.9446 75.9901 11.9446C75.5645 11.9446 75.2179 11.5963 75.2179 11.1687V4.79298C75.2179 2.18267 73.1105 0.0620117 70.5088 0.0620117C67.9072 0.0620117 65.7998 2.17922 65.7998 4.79298V15.4514H69.7366V4.79298C69.7366 4.3654 70.0832 4.01713 70.5088 4.01713C70.9344 4.01713 71.2811 4.3654 71.2811 4.79298V11.1101C71.2811 13.7204 73.3885 15.8997 75.9901 15.8997C78.5918 15.8997 80.6992 13.7825 80.6992 11.1687V0.444765H76.7624Z" fill="#F06A3C"/>
</g>
<defs>
<clipPath id="clip0_1599_17442">
<rect width="80.6989" height="15.8998" fill="white"/>
</clipPath>
</defs>
</svg>
