<svg width="24" height="22" viewBox="0 0 24 22" fill="none" xmlns="http://www.w3.org/2000/svg">
<path d="M3.17383 21.1426H13.5742C14.6224 21.1426 15.4134 20.8724 15.9473 20.332C16.4811 19.7917 16.748 18.9941 16.748 17.9395V13.5449H14.834V17.8223C14.834 18.2715 14.7168 18.6165 14.4824 18.8574C14.248 19.0983 13.8932 19.2188 13.418 19.2188H3.33984C2.86458 19.2188 2.50977 19.0983 2.27539 18.8574C2.04102 18.6165 1.92383 18.2715 1.92383 17.8223V3.33008C1.92383 2.87435 2.04102 2.52604 2.27539 2.28516C2.50977 2.03776 2.86458 1.91406 3.33984 1.91406H13.418C13.8932 1.91406 14.248 2.03776 14.4824 2.28516C14.7168 2.52604 14.834 2.87435 14.834 3.33008V7.60742H16.748V3.20312C16.748 2.15495 16.4811 1.36068 15.9473 0.820312C15.4134 0.273438 14.6224 0 13.5742 0H3.17383C2.12565 0 1.33464 0.273438 0.800781 0.820312C0.266927 1.36068 0 2.15495 0 3.20312V17.9395C0 18.9941 0.266927 19.7917 0.800781 20.332C1.33464 20.8724 2.12565 21.1426 3.17383 21.1426ZM9.47266 11.4648H19.3066L20.7617 11.3965L20.0391 12.002L18.5938 13.3691C18.4115 13.5319 18.3203 13.7337 18.3203 13.9746C18.3203 14.196 18.3919 14.388 18.5352 14.5508C18.6784 14.707 18.8672 14.7852 19.1016 14.7852C19.3164 14.7852 19.5085 14.7005 19.6777 14.5312L22.8418 11.25C22.9525 11.1328 23.0306 11.0189 23.0762 10.9082C23.1217 10.7975 23.1445 10.6836 23.1445 10.5664C23.1445 10.4492 23.1217 10.3353 23.0762 10.2246C23.0306 10.1074 22.9525 9.99349 22.8418 9.88281L19.6777 6.60156C19.5085 6.42578 19.3164 6.33789 19.1016 6.33789C18.8672 6.33789 18.6784 6.41602 18.5352 6.57227C18.3919 6.72852 18.3203 6.91732 18.3203 7.13867C18.3203 7.39258 18.4115 7.59766 18.5938 7.75391L20.0391 9.13086L20.7617 9.73633L19.3066 9.6582H9.47266C9.23177 9.6582 9.02344 9.74935 8.84766 9.93164C8.67188 10.1074 8.58398 10.319 8.58398 10.5664C8.58398 10.8138 8.67188 11.0254 8.84766 11.2012C9.02344 11.377 9.23177 11.4648 9.47266 11.4648Z" fill="#1E1E1E"/>
</svg>
