<svg width="22" height="22" viewBox="0 0 22 22" fill="none" xmlns="http://www.w3.org/2000/svg">
<path d="M15.5835 16.8943H11.9168L7.83765 19.6076C7.23265 20.0109 6.41683 19.5801 6.41683 18.8468V16.8943C3.66683 16.8943 1.8335 15.0609 1.8335 12.3109V6.81087C1.8335 4.06087 3.66683 2.22754 6.41683 2.22754H15.5835C18.3335 2.22754 20.1668 4.06087 20.1668 6.81087V12.3109C20.1668 15.0609 18.3335 16.8943 15.5835 16.8943Z" stroke="#2E2D2D" stroke-width="1.5" stroke-miterlimit="10" stroke-linecap="round" stroke-linejoin="round"/>
<path d="M11.0002 10.4131V10.2206C11.0002 9.59729 11.3852 9.26727 11.7702 9.00144C12.146 8.74477 12.5218 8.41478 12.5218 7.80978C12.5218 6.96645 11.8435 6.28809 11.0002 6.28809C10.1568 6.28809 9.47852 6.96645 9.47852 7.80978" stroke="#2E2D2D" stroke-width="1.5" stroke-linecap="round" stroke-linejoin="round"/>
<path d="M10.9957 12.6043H11.004" stroke="#2E2D2D" stroke-width="1.5" stroke-linecap="round" stroke-linejoin="round"/>
</svg>
