<svg width="22" height="22" viewBox="0 0 22 22" fill="none" xmlns="http://www.w3.org/2000/svg">
<circle cx="11" cy="11" r="11" fill="#898686"/>
<path d="M9.73438 12.8335V12.9785H11.6196V12.8335C11.6357 11.625 12.0225 11.0691 12.957 10.4971C14.0044 9.87671 14.657 9.02271 14.665 7.70947C14.657 5.79199 13.1665 4.5835 10.9912 4.5835C9.00122 4.5835 7.38989 5.68726 7.3335 7.85449H9.34766C9.40405 6.7749 10.1775 6.25928 10.9751 6.25928C11.8533 6.25928 12.5623 6.83936 12.5542 7.7417C12.5623 8.54736 12.0305 9.08716 11.3457 9.53027C10.3306 10.1506 9.75049 10.7791 9.73438 12.8335ZM9.47656 15.2827C9.46851 15.9756 10.0405 16.5396 10.7334 16.5396C11.4021 16.5396 11.9741 15.9756 11.9741 15.2827C11.9741 14.606 11.4021 14.05 10.7334 14.042C10.0405 14.05 9.46851 14.606 9.47656 15.2827Z" fill="white"/>
</svg>
