<svg width="38" height="43" viewBox="0 0 38 43" fill="none" xmlns="http://www.w3.org/2000/svg">
<path d="M3.97559 34.1602V32.7539H2.8916V34.1602C2.88672 35.791 2.07617 37.4805 0.655273 38.1543L1.31934 39.0234C2.33008 38.5156 3.05273 37.5195 3.43848 36.3184C3.81445 37.4414 4.50293 38.374 5.45996 38.8574L6.12402 37.9883C4.75684 37.3291 3.96582 35.7373 3.97559 34.1602ZM6.65137 40.8691H7.73535V36.4258H9.09277V35.498H7.73535V32.041H6.65137V40.8691ZM16.6709 32.8516H10.3037V33.7207H15.5771C15.5723 34.7803 15.5723 36.0352 15.2256 37.7539L16.3193 37.8711C16.6611 36.0254 16.6611 34.7998 16.6709 33.7012V32.8516ZM9.46387 39.7266H17.5107V38.8379H13.5068V35.7715H12.4326V38.8379H9.46387V39.7266ZM27.833 32.0508H26.7393V38.4961H27.833V32.0508ZM20.4893 36.416L21.0557 37.2754C22.0957 36.8994 22.8281 36.1279 23.2188 35.1611C23.6094 36.0645 24.3271 36.7676 25.333 37.1191L25.8896 36.2598C24.4883 35.791 23.7656 34.6289 23.7705 33.3984V32.5391H22.6475V33.3984C22.6523 34.668 21.9199 35.9131 20.4893 36.416ZM21.9932 40.6934H28.0771V39.8145H23.0869V37.8809H21.9932V40.6934ZM36.3291 32.8516H29.9619V33.7207H35.2354C35.2305 34.7803 35.2305 36.0352 34.8838 37.7539L35.9775 37.8711C36.3193 36.0254 36.3193 34.7998 36.3291 33.7012V32.8516ZM29.1221 39.7266H37.1689V38.8379H33.165V35.7715H32.0908V38.8379H29.1221V39.7266Z" fill="#8B8B8B"/>
<path d="M9 22H29" stroke="#8B8B8B" stroke-width="1.5" stroke-linecap="round" stroke-linejoin="round"/>
<path d="M19 6C14.03 6 10 10.03 10 15V22H28V15C28 10.03 23.97 6 19 6Z" stroke="#8B8B8B" stroke-width="1.5" stroke-linecap="round" stroke-linejoin="round"/>
<path d="M19 2V3" stroke="#8B8B8B" stroke-width="1.5" stroke-linecap="round" stroke-linejoin="round"/>
<path d="M11 4L12 5" stroke="#8B8B8B" stroke-width="1.5" stroke-linecap="round" stroke-linejoin="round"/>
<path d="M27 4L26 5" stroke="#8B8B8B" stroke-width="1.5" stroke-linecap="round" stroke-linejoin="round"/>
</svg>
