<svg width="22" height="22" viewBox="0 0 22 22" fill="none" xmlns="http://www.w3.org/2000/svg">
<path d="M17.4717 17.1143L15.51 13.2002L13.5483 17.1143" stroke="#2E2D2D" stroke-width="1.5" stroke-linecap="round" stroke-linejoin="round"/>
<path d="M13.9058 16.4175H17.1324" stroke="#2E2D2D" stroke-width="1.5" stroke-linecap="round" stroke-linejoin="round"/>
<path d="M15.5102 20.1668C12.9435 20.1668 10.8535 18.086 10.8535 15.5101C10.8535 12.9435 12.9344 10.8535 15.5102 10.8535C18.0769 10.8535 20.1669 12.9343 20.1669 15.5101C20.1669 18.086 18.086 20.1668 15.5102 20.1668Z" stroke="#2E2D2D" stroke-width="1.5" stroke-linecap="round" stroke-linejoin="round"/>
<path d="M4.60183 1.8335H8.19517C10.0927 1.8335 11.0093 2.75018 10.9635 4.60185V8.19517C11.0093 10.0927 10.0927 11.0093 8.19517 10.9635H4.60183C2.75017 11.0002 1.8335 10.0835 1.8335 8.18599V4.59267C1.8335 2.75017 2.75017 1.8335 4.60183 1.8335Z" stroke="#2E2D2D" stroke-width="1.5" stroke-linecap="round" stroke-linejoin="round"/>
<path d="M8.25926 5.36279H4.5376" stroke="#2E2D2D" stroke-width="1.5" stroke-linecap="round" stroke-linejoin="round"/>
<path d="M6.38916 4.73926V5.36258" stroke="#2E2D2D" stroke-width="1.5" stroke-linecap="round" stroke-linejoin="round"/>
<path d="M7.32416 5.35352C7.32416 6.95768 6.06832 8.25933 4.52832 8.25933" stroke="#2E2D2D" stroke-width="1.5" stroke-linecap="round" stroke-linejoin="round"/>
<path d="M8.2593 8.25934C7.59013 8.25934 6.98514 7.90183 6.56348 7.3335" stroke="#2E2D2D" stroke-width="1.5" stroke-linecap="round" stroke-linejoin="round"/>
<path d="M1.8335 13.75C1.8335 17.2975 4.70266 20.1667 8.25016 20.1667L7.28766 18.5625" stroke="#2E2D2D" stroke-width="1.5" stroke-linecap="round" stroke-linejoin="round"/>
<path d="M20.1667 8.25016C20.1667 4.70266 17.2975 1.8335 13.75 1.8335L14.7125 3.43766" stroke="#2E2D2D" stroke-width="1.5" stroke-linecap="round" stroke-linejoin="round"/>
</svg>
