<svg width="38" height="43" viewBox="0 0 38 43" fill="none" xmlns="http://www.w3.org/2000/svg">
<path d="M4.42676 34.8438V34.3848H6.29199V33.5156H4.43652V32.2266H3.35254V33.5156H1.46777V34.3848H3.35254V34.8438C3.35254 36.2305 2.57617 37.7344 1.18457 38.3594L1.78027 39.1992C2.79102 38.7451 3.51855 37.8076 3.9043 36.6943C4.27539 37.7246 4.96387 38.6035 5.9209 39.043L6.52637 38.2227C5.16406 37.5781 4.42676 36.1523 4.42676 34.8438ZM7.15137 40.8691H8.23535V36.4453H9.59277V35.5371H8.23535V32.041H7.15137V40.8691ZM18.167 33.3008H16.9268V32.0508H15.8428V37.3828H16.9268V36.0645H18.167V35.1562H16.9268V34.1992H18.167V33.3008ZM10.2959 33.4473H13.2646V34.3066H10.3057V36.9434H11.0283C12.7715 36.9482 13.9238 36.8994 15.2373 36.6602L15.1201 35.791C13.9189 35.9912 12.8838 36.0449 11.3896 36.0547V35.127H14.3291V32.5879H10.2959V33.4473ZM11.0576 39.2188C11.0527 40.2539 12.1953 40.8496 14.0459 40.8496C15.8672 40.8496 17.0098 40.2539 17.0146 39.2188C17.0098 38.1787 15.8672 37.5537 14.0459 37.5488C12.1953 37.5537 11.0527 38.1787 11.0576 39.2188ZM12.1221 39.2188C12.1172 38.6865 12.8105 38.3984 14.0459 38.3984C15.2617 38.3984 15.9404 38.6865 15.9404 39.2188C15.9404 39.7461 15.2617 40.0342 14.0459 40.0293C12.8105 40.0342 12.1172 39.7461 12.1221 39.2188ZM25.9111 32.6953H21.4092V33.5938H24.8418C24.832 34.1357 24.7979 34.8145 24.6221 35.7227L25.6963 35.8203C25.9014 34.7021 25.9014 33.8232 25.9111 33.2227V32.6953ZM20.8818 36.5234L20.9795 37.3926C22.5273 37.3877 24.6123 37.3535 26.4482 37.0215L26.3896 36.2402C25.5352 36.3623 24.5977 36.4307 23.6846 36.4697V34.707H22.6104V36.5039C21.9902 36.5137 21.4043 36.5186 20.8818 36.5234ZM22.2002 40.6934H28.3037V39.8145H23.2939V38.0664H22.2002V40.6934ZM26.9072 38.6523H28.0205V35.7031H29.1631V34.7949H28.0205V32.041H26.9072V38.6523ZM36.9756 32.041H35.9014V40.8789H36.9756V32.041ZM30.1006 33.6914H33.1572V35.2637H30.1104V38.7891H30.8818C32.4688 38.7939 33.7871 38.7354 35.2861 38.4766L35.1885 37.5879C33.8115 37.8174 32.6152 37.8906 31.2236 37.9004V36.123H34.2607V32.8125H30.1006V33.6914Z" fill="#8B8B8B"/>
<path d="M24.3075 3C25.1024 2.99985 25.8727 3.26681 26.4874 3.75544C27.1021 4.24408 27.5232 4.92418 27.679 5.68L27.9499 7H28.9688C29.218 7.00001 29.4587 7.08752 29.6465 7.24636C29.8343 7.40519 29.9565 7.62459 29.9904 7.864L30 8C30 8.24165 29.9097 8.47512 29.7459 8.65724C29.5821 8.83936 29.3559 8.9578 29.109 8.99067L28.9688 9H28.3624L28.5164 9.74667C28.9445 9.86808 29.3206 10.1208 29.588 10.467C29.8555 10.8132 30.0001 11.2341 30 11.6667V18.3333C30 18.8638 29.7827 19.3725 29.3959 19.7475C29.0091 20.1226 28.4845 20.3333 27.9375 20.3333H27.25V21.6667C27.25 22.0203 27.1051 22.3594 26.8473 22.6095C26.5894 22.8595 26.2397 23 25.875 23C25.5103 23 25.1606 22.8595 24.9027 22.6095C24.6449 22.3594 24.5 22.0203 24.5 21.6667V20.3333H13.5V21.6667C13.5 22.0203 13.3551 22.3594 13.0973 22.6095C12.8394 22.8595 12.4897 23 12.125 23C11.7603 23 11.4106 22.8595 11.1527 22.6095C10.8949 22.3594 10.75 22.0203 10.75 21.6667V20.3333H10.0625C9.51549 20.3333 8.99089 20.1226 8.60409 19.7475C8.2173 19.3725 8 18.8638 8 18.3333V11.6667C7.99991 11.2341 8.14446 10.8132 8.41195 10.467C8.67944 10.1208 9.05547 9.86808 9.48362 9.74667L9.63625 9H9.03125C8.75775 9 8.49544 8.89464 8.30205 8.70711C8.10865 8.51957 8 8.26522 8 8C8 7.73478 8.10865 7.48043 8.30205 7.29289C8.49544 7.10536 8.75775 7 9.03125 7H10.0487L10.321 5.68C10.4768 4.92418 10.8979 4.24408 11.5126 3.75544C12.1273 3.26681 12.8976 2.99985 13.6925 3H24.3075ZM27.9375 11H10.0625C9.88016 11 9.7053 11.0702 9.57636 11.1953C9.44743 11.3203 9.375 11.4899 9.375 11.6667V18.3333C9.375 18.5101 9.44743 18.6797 9.57636 18.8047C9.7053 18.9298 9.88016 19 10.0625 19H27.9375C28.1198 19 28.2947 18.9298 28.4236 18.8047C28.5526 18.6797 28.625 18.5101 28.625 18.3333V11.6667C28.625 11.4899 28.5526 11.3203 28.4236 11.1953C28.2947 11.0702 28.1198 11 27.9375 11ZM13.5 13.6667C13.8647 13.6667 14.2144 13.8071 14.4723 14.0572C14.7301 14.3072 14.875 14.6464 14.875 15C14.875 15.3536 14.7301 15.6928 14.4723 15.9428C14.2144 16.1929 13.8647 16.3333 13.5 16.3333C13.1353 16.3333 12.7856 16.1929 12.5277 15.9428C12.2699 15.6928 12.125 15.3536 12.125 15C12.125 14.6464 12.2699 14.3072 12.5277 14.0572C12.7856 13.8071 13.1353 13.6667 13.5 13.6667ZM24.5 13.6667C24.8647 13.6667 25.2144 13.8071 25.4723 14.0572C25.7301 14.3072 25.875 14.6464 25.875 15C25.875 15.3536 25.7301 15.6928 25.4723 15.9428C25.2144 16.1929 24.8647 16.3333 24.5 16.3333C24.1353 16.3333 23.7856 16.1929 23.5277 15.9428C23.2699 15.6928 23.125 15.3536 23.125 15C23.125 14.6464 23.2699 14.3072 23.5277 14.0572C23.7856 13.8071 24.1353 13.6667 24.5 13.6667ZM24.3075 4.33333H13.6925C13.2156 4.3333 12.7535 4.49351 12.3847 4.78668C12.016 5.07986 11.7633 5.48789 11.6699 5.94133L10.8999 9.66667H27.0988L26.3301 5.94133C26.2367 5.48811 25.9843 5.08026 25.6158 4.78711C25.2473 4.49396 24.7855 4.33361 24.3089 4.33333H24.3075Z" fill="#8B8B8B"/>
</svg>
