<svg width="38" height="43" viewBox="0 0 38 43" fill="none" xmlns="http://www.w3.org/2000/svg">
<path d="M24.79 22.75H13.21C10.47 22.75 8.25 20.52 8.25 17.78V10.37C8.25 9.00997 9.09 7.29997 10.17 6.45997L15.56 2.25997C17.18 0.999974 19.77 0.939974 21.45 2.11997L27.63 6.44997C28.82 7.27997 29.75 9.05997 29.75 10.51V17.79C29.75 20.52 27.53 22.75 24.79 22.75ZM16.48 3.43997L11.09 7.63997C10.38 8.19997 9.75 9.46997 9.75 10.37V17.78C9.75 19.69 11.3 21.25 13.21 21.25H24.79C26.7 21.25 28.25 19.7 28.25 17.79V10.51C28.25 9.54997 27.56 8.21997 26.77 7.67997L20.59 3.34997C19.45 2.54997 17.57 2.58997 16.48 3.43997Z" fill="#8B8B8B"/>
<path d="M19 18.75C18.59 18.75 18.25 18.41 18.25 18V15C18.25 14.59 18.59 14.25 19 14.25C19.41 14.25 19.75 14.59 19.75 15V18C19.75 18.41 19.41 18.75 19 18.75Z" fill="#8B8B8B"/>
<path d="M22.0632 38.1934H15.9402V40.7617H22.0632V38.1934ZM14.9929 37.6758H23.0398V36.8164H19.5535V36.3037C21.0964 36.2305 21.9412 35.8105 21.946 35.0586C21.9412 34.2285 20.8962 33.8086 19.0066 33.8086C17.1365 33.8086 16.0769 34.2285 16.0769 35.0586C16.0769 35.8105 16.9363 36.2305 18.4695 36.3037V36.8164H14.9929V37.6758ZM15.3933 33.5352H22.6003V32.7148H19.5535V31.9434H18.4695V32.7148H15.3933V33.5352ZM17.0144 39.9414V39.0137H21.0085V39.9414H17.0144ZM17.239 35.0586C17.239 34.7021 17.8396 34.5459 19.0066 34.541C20.1931 34.5459 20.7791 34.7021 20.7839 35.0586C20.7791 35.4053 20.1931 35.5762 19.0066 35.5762C17.8396 35.5762 17.239 35.4053 17.239 35.0586Z" fill="#8B8B8B"/>
</svg>
