<svg width="26" height="43" viewBox="0 0 26 43" fill="none" xmlns="http://www.w3.org/2000/svg">
<path d="M21.0402 6.81994L15.2802 2.78994C13.7102 1.68994 11.3002 1.74994 9.79023 2.91994L4.78023 6.82994C3.78023 7.60994 2.99023 9.20994 2.99023 10.4699V17.3699C2.99023 19.9199 5.06023 21.9999 7.61023 21.9999H18.3902C20.9402 21.9999 23.0102 19.9299 23.0102 17.3799V10.5999C23.0102 9.24994 22.1402 7.58994 21.0402 6.81994ZM13.7502 17.9999C13.7502 18.4099 13.4102 18.7499 13.0002 18.7499C12.5902 18.7499 12.2502 18.4099 12.2502 17.9999V14.9999C12.2502 14.5899 12.5902 14.2499 13.0002 14.2499C13.4102 14.2499 13.7502 14.5899 13.7502 14.9999V17.9999Z" fill="#E55622"/>
<path d="M16.0635 38.1934H9.94043V40.7617H16.0635V38.1934ZM8.99316 37.6758H17.04V36.8164H13.5537V36.3037C15.0967 36.2305 15.9414 35.8105 15.9463 35.0586C15.9414 34.2285 14.8965 33.8086 13.0068 33.8086C11.1367 33.8086 10.0771 34.2285 10.0771 35.0586C10.0771 35.8105 10.9365 36.2305 12.4697 36.3037V36.8164H8.99316V37.6758ZM9.39355 33.5352H16.6006V32.7148H13.5537V31.9434H12.4697V32.7148H9.39355V33.5352ZM11.0146 39.9414V39.0137H15.0088V39.9414H11.0146ZM11.2393 35.0586C11.2393 34.7021 11.8398 34.5459 13.0068 34.541C14.1934 34.5459 14.7793 34.7021 14.7842 35.0586C14.7793 35.4053 14.1934 35.5762 13.0068 35.5762C11.8398 35.5762 11.2393 35.4053 11.2393 35.0586Z" fill="#E55622"/>
</svg>
