<svg width="28" height="28" viewBox="0 0 28 28" fill="none" xmlns="http://www.w3.org/2000/svg">
<path d="M7.38281 14.8203C8.40365 15.8411 9.64323 16.3516 11.1016 16.3516C12.5599 16.3516 13.7995 15.8411 14.8203 14.8203C15.8411 13.7995 16.3516 12.5599 16.3516 11.1016C16.3516 9.64323 15.8411 8.40365 14.8203 7.38281C13.7995 6.36198 12.5599 5.85156 11.1016 5.85156C9.64323 5.85156 8.40365 6.36198 7.38281 7.38281C6.36198 8.40365 5.85156 9.64323 5.85156 11.1016C5.85156 12.5599 6.36198 13.7995 7.38281 14.8203ZM18.1016 16.3516L23.8984 22.1484L22.1484 23.8984L16.3516 18.1016V17.1719L16.0234 16.8437C14.638 18.0469 12.9974 18.6484 11.1016 18.6484C8.98698 18.6484 7.18229 17.9193 5.6875 16.4609C4.22917 15.0026 3.5 13.2161 3.5 11.1016C3.5 8.98698 4.22917 7.20052 5.6875 5.74219C7.18229 4.2474 8.98698 3.5 11.1016 3.5C13.2161 3.5 15.0026 4.2474 16.4609 5.74219C17.9193 7.20052 18.6484 8.98698 18.6484 11.1016C18.6484 12.9974 18.0469 14.638 16.8437 16.0234L17.1719 16.3516H18.1016Z" fill="#2E2D2D"/>
</svg>
