<svg width="32" height="43" viewBox="0 0 32 43" fill="none" xmlns="http://www.w3.org/2000/svg">
<path d="M9.7207 32.041H8.67578V35.5176H7.69922V32.207H6.68359V40.4199H7.69922V36.4062H8.67578V40.8691H9.7207V32.041ZM2.52344 38.6719H3.10938C4.04199 38.6719 5.05273 38.6084 6.24414 38.3984L6.13672 37.4512C5.20898 37.6318 4.37891 37.7002 3.61719 37.7148V33.0566H2.52344V38.6719ZM20.5508 32.041H19.4668V34.2383H17.9629V35.127H19.4668V37.2852H20.5508V32.041ZM13.1289 36.4062L13.6953 37.2656C14.7451 36.8945 15.4824 36.1328 15.8682 35.1953C16.2588 36.0254 16.9521 36.6992 17.9336 37.0312L18.4805 36.1719C17.1133 35.7129 16.4004 34.6289 16.4004 33.5547V33.4961H18.2266V32.6172H13.4609V33.4961H15.2969V33.5645C15.2969 34.7314 14.5498 35.918 13.1289 36.4062ZM14.5645 39.1895C14.5547 40.249 15.7021 40.8643 17.5625 40.8691C19.4326 40.8643 20.5752 40.249 20.5801 39.1895C20.5752 38.1299 19.4326 37.5098 17.5625 37.5098C15.7021 37.5098 14.5547 38.1299 14.5645 39.1895ZM15.6387 39.1895C15.6338 38.6377 16.3369 38.3398 17.5625 38.3398C18.7979 38.3398 19.4961 38.6377 19.4961 39.1895C19.4961 39.7363 18.7979 40.0342 17.5625 40.0293C16.3369 40.0342 15.6338 39.7363 15.6387 39.1895ZM29.8672 38.916H26.3516V37.1973H28.9492V32.627H27.8652V34.0723H23.7734V32.627H22.6895V37.1973H25.2773V38.916H21.8008V39.8047H29.8672V38.916ZM23.7734 36.3184V34.9414H27.8652V36.3184H23.7734Z" fill="#8B8B8B"/>
<path d="M16 12C18.7614 12 21 9.76142 21 7C21 4.23858 18.7614 2 16 2C13.2386 2 11 4.23858 11 7C11 9.76142 13.2386 12 16 12Z" stroke="#8B8B8B" stroke-width="1.5" stroke-linecap="round" stroke-linejoin="round"/>
<path d="M24.5901 22C24.5901 18.13 20.7402 15 16.0002 15C11.2602 15 7.41016 18.13 7.41016 22" stroke="#8B8B8B" stroke-width="1.5" stroke-linecap="round" stroke-linejoin="round"/>
</svg>
