<svg width="22" height="22" viewBox="0 0 22 22" fill="none" xmlns="http://www.w3.org/2000/svg">
<path d="M9.85414 2.24596C10.4958 1.70512 11.5316 1.70512 12.155 2.24596L13.6033 3.48346C13.8783 3.71262 14.4008 3.90512 14.7675 3.90512H16.3258C17.2975 3.90512 18.095 4.70262 18.095 5.67429V7.23262C18.095 7.59929 18.2875 8.11262 18.5166 8.38762L19.7541 9.83596C20.295 10.4776 20.295 11.5135 19.7541 12.1368L18.5166 13.5851C18.2875 13.8601 18.095 14.3735 18.095 14.7401V16.2985C18.095 17.2701 17.2975 18.0676 16.3258 18.0676H14.7675C14.4008 18.0676 13.8875 18.2601 13.6125 18.4893L12.1641 19.7268C11.5225 20.2676 10.4866 20.2676 9.86331 19.7268L8.41497 18.4893C8.13997 18.2601 7.61747 18.0676 7.25997 18.0676H5.65581C4.68414 18.0676 3.88664 17.2701 3.88664 16.2985V14.731C3.88664 14.3735 3.70331 13.851 3.47414 13.5851L2.23664 12.1276C1.70497 11.4951 1.70497 10.4685 2.23664 9.83596L3.47414 8.37846C3.70331 8.10346 3.88664 7.59012 3.88664 7.23262V5.68346C3.88664 4.71179 4.68414 3.91429 5.65581 3.91429H7.24164C7.60831 3.91429 8.12164 3.72179 8.39664 3.49262L9.85414 2.24596Z" stroke="#1E1E1E" stroke-width="1.5" stroke-linecap="round" stroke-linejoin="round"/>
<path d="M11 7.45264V11.8801" stroke="#1E1E1E" stroke-width="1.5" stroke-linecap="round" stroke-linejoin="round"/>
<path d="M10.9951 14.6665H11.0034" stroke="#1E1E1E" stroke-width="2" stroke-linecap="round" stroke-linejoin="round"/>
</svg>
