<svg width="37" height="43" viewBox="0 0 37 43" fill="none" xmlns="http://www.w3.org/2000/svg">
<path d="M3.47559 34.1602V32.7539H2.3916V34.1602C2.38672 35.791 1.57617 37.4805 0.155273 38.1543L0.819336 39.0234C1.83008 38.5156 2.55273 37.5195 2.93848 36.3184C3.31445 37.4414 4.00293 38.374 4.95996 38.8574L5.62402 37.9883C4.25684 37.3291 3.46582 35.7373 3.47559 34.1602ZM6.15137 40.8691H7.23535V36.4258H8.59277V35.498H7.23535V32.041H6.15137V40.8691ZM16.1709 32.8516H9.80371V33.7207H15.0771C15.0723 34.7803 15.0723 36.0352 14.7256 37.7539L15.8193 37.8711C16.1611 36.0254 16.1611 34.7998 16.1709 33.7012V32.8516ZM8.96387 39.7266H17.0107V38.8379H13.0068V35.7715H11.9326V38.8379H8.96387V39.7266ZM27.333 32.0508H26.2393V38.4961H27.333V32.0508ZM19.9893 36.416L20.5557 37.2754C21.5957 36.8994 22.3281 36.1279 22.7188 35.1611C23.1094 36.0645 23.8271 36.7676 24.833 37.1191L25.3896 36.2598C23.9883 35.791 23.2656 34.6289 23.2705 33.3984V32.5391H22.1475V33.3984C22.1523 34.668 21.4199 35.9131 19.9893 36.416ZM21.4932 40.6934H27.5771V39.8145H22.5869V37.8809H21.4932V40.6934ZM35.8291 32.8516H29.4619V33.7207H34.7354C34.7305 34.7803 34.7305 36.0352 34.3838 37.7539L35.4775 37.8711C35.8193 36.0254 35.8193 34.7998 35.8291 33.7012V32.8516ZM28.6221 39.7266H36.6689V38.8379H32.665V35.7715H31.5908V38.8379H28.6221V39.7266Z" fill="#8B8B8B"/>
<path d="M9 22H29" stroke="#8B8B8B" stroke-width="1.5" stroke-linecap="round" stroke-linejoin="round"/>
<path d="M19 6C14.03 6 10 10.03 10 15V22H28V15C28 10.03 23.97 6 19 6Z" stroke="#8B8B8B" stroke-width="1.5" stroke-linecap="round" stroke-linejoin="round"/>
<path d="M19 2V3" stroke="#8B8B8B" stroke-width="1.5" stroke-linecap="round" stroke-linejoin="round"/>
<path d="M11 4L12 5" stroke="#8B8B8B" stroke-width="1.5" stroke-linecap="round" stroke-linejoin="round"/>
<path d="M27 4L26 5" stroke="#8B8B8B" stroke-width="1.5" stroke-linecap="round" stroke-linejoin="round"/>
</svg>
