<svg width="1024" height="1024" viewBox="0 0 1024 1024" fill="none" xmlns="http://www.w3.org/2000/svg">
<rect width="1024" height="1024" rx="160" fill="#F9F9F9"/>
<g clip-path="url(#clip0_1119_13749)">
<path d="M397.615 432.692V505.212H346.029C337.631 505.212 330.789 498.375 330.789 489.901V432.692H289.267V490.082C289.375 521.469 314.716 546.928 346.029 546.928H385.995H397.579C397.579 553.51 392.257 558.893 385.669 558.893H301.43V591.48H394.755C419.227 591.48 439.065 571.55 439.065 546.964V432.692H397.543H397.615Z" fill="#F06A3C"/>
<path d="M214.73 428C201.082 428 188.52 432.837 178.746 440.947C168.936 432.837 156.41 428 142.763 428C111.413 428 86 453.531 86 485.027V591.48H127.522V485.027C127.522 476.589 134.328 469.716 142.763 469.716C151.197 469.716 158.003 476.553 158.003 485.027V591.48H199.525V485.027C199.525 476.589 206.331 469.716 214.766 469.716C223.201 469.716 230.006 476.553 230.006 485.027V591.48H271.528V485.027C271.528 453.531 246.116 428 214.766 428H214.73Z" fill="#F06A3C"/>
<path d="M603.38 489.719C603.38 458.223 577.967 432.692 546.617 432.692H453.727V591.444H495.249V546.709H546.617C555.016 546.709 561.858 553.547 561.858 562.021V591.444H603.38V561.839C603.344 548.2 598.529 535.653 590.493 525.87C598.529 516.014 603.38 503.43 603.38 489.719ZM495.249 505.03V474.407H546.617C555.016 474.407 561.858 481.245 561.858 489.719C561.858 498.193 555.052 505.03 546.617 505.03H495.249Z" fill="#F06A3C"/>
<path d="M664.45 474.88H764.799V433.165H664.197C636.902 433.346 614.819 455.604 614.819 483.063C614.819 493.901 618.295 503.903 624.159 512.086C618.331 520.269 614.819 530.271 614.819 541.109C614.819 568.495 636.829 590.716 664.016 590.971H664.45H764.799V549.255H664.45C659.962 549.255 656.305 545.582 656.305 541.072C656.305 536.562 659.962 532.889 664.45 532.889H747.097V491.174H664.45C659.962 491.174 656.305 487.5 656.305 482.99C656.305 478.481 659.962 474.807 664.45 474.807V474.88Z" fill="#F06A3C"/>
<path d="M895.628 432.692V545.8C895.628 550.31 891.972 553.983 887.483 553.983C882.994 553.983 879.338 550.31 879.338 545.8V478.553C879.338 451.022 857.11 428.655 829.67 428.655C802.23 428.655 780.003 450.985 780.003 478.553V590.971H821.525V478.553C821.525 474.043 825.181 470.37 829.67 470.37C834.159 470.37 837.815 474.043 837.815 478.553V545.182C837.815 572.713 860.043 595.699 887.483 595.699C914.923 595.699 937.15 573.368 937.15 545.8V432.692H895.628Z" fill="#F06A3C"/>
</g>
<defs>
<clipPath id="clip0_1119_13749">
<rect width="851.15" height="167.699" fill="white" transform="translate(86 428)"/>
</clipPath>
</defs>
</svg>
