<svg width="38" height="43" viewBox="0 0 38 43" fill="none" xmlns="http://www.w3.org/2000/svg">
<path d="M12.7207 32.041H11.6758V35.5176H10.6992V32.207H9.68359V40.4199H10.6992V36.4062H11.6758V40.8691H12.7207V32.041ZM5.52344 38.6719H6.10938C7.04199 38.6719 8.05273 38.6084 9.24414 38.3984L9.13672 37.4512C8.20898 37.6318 7.37891 37.7002 6.61719 37.7148V33.0566H5.52344V38.6719ZM23.5508 32.041H22.4668V34.2383H20.9629V35.127H22.4668V37.2852H23.5508V32.041ZM16.1289 36.4062L16.6953 37.2656C17.7451 36.8945 18.4824 36.1328 18.8682 35.1953C19.2588 36.0254 19.9521 36.6992 20.9336 37.0312L21.4805 36.1719C20.1133 35.7129 19.4004 34.6289 19.4004 33.5547V33.4961H21.2266V32.6172H16.4609V33.4961H18.2969V33.5645C18.2969 34.7314 17.5498 35.918 16.1289 36.4062ZM17.5645 39.1895C17.5547 40.249 18.7021 40.8643 20.5625 40.8691C22.4326 40.8643 23.5752 40.249 23.5801 39.1895C23.5752 38.1299 22.4326 37.5098 20.5625 37.5098C18.7021 37.5098 17.5547 38.1299 17.5645 39.1895ZM18.6387 39.1895C18.6338 38.6377 19.3369 38.3398 20.5625 38.3398C21.7979 38.3398 22.4961 38.6377 22.4961 39.1895C22.4961 39.7363 21.7979 40.0342 20.5625 40.0293C19.3369 40.0342 18.6338 39.7363 18.6387 39.1895ZM32.8672 38.916H29.3516V37.1973H31.9492V32.627H30.8652V34.0723H26.7734V32.627H25.6895V37.1973H28.2773V38.916H24.8008V39.8047H32.8672V38.916ZM26.7734 36.3184V34.9414H30.8652V36.3184H26.7734Z" fill="#8B8B8B"/>
<path d="M19 12C21.7614 12 24 9.76142 24 7C24 4.23858 21.7614 2 19 2C16.2386 2 14 4.23858 14 7C14 9.76142 16.2386 12 19 12Z" stroke="#8B8B8B" stroke-width="1.5" stroke-linecap="round" stroke-linejoin="round"/>
<path d="M27.5901 22C27.5901 18.13 23.7402 15 19.0002 15C14.2602 15 10.4102 18.13 10.4102 22" stroke="#8B8B8B" stroke-width="1.5" stroke-linecap="round" stroke-linejoin="round"/>
</svg>
