<svg width="32" height="43" viewBox="0 0 32 43" fill="none" xmlns="http://www.w3.org/2000/svg">
<path d="M9.49609 32.041H8.40234V36.5137H9.49609V32.041ZM2.2793 35.8105L2.66016 36.6895C5.39453 36.1133 6.8252 34.7705 6.83008 32.4023H2.74805V33.2812H5.62402C5.49707 34.458 4.47168 35.3809 2.2793 35.8105ZM3.63672 37.7246H8.40234V38.3887H3.65625V40.7812H9.75977V39.9316H4.75V39.1797H9.49609V36.875H3.63672V37.7246ZM16.332 33.8477V33.8184H18.1777V32.959H16.3418V32.002H15.248V32.959H13.4023V33.8184H15.248V33.8477C15.248 34.8828 14.501 35.8545 13.1094 36.2305L13.627 37.0898C14.667 36.7871 15.4092 36.1426 15.7998 35.3125C16.1953 36.0645 16.9229 36.6504 17.9434 36.9238L18.4316 36.0938C17.0449 35.7227 16.3271 34.7949 16.332 33.8477ZM13.9785 40L14.3789 40.8203C15.7461 40.625 16.7861 40.0488 17.2939 39.2529C17.8018 40.0537 18.8467 40.6445 20.2285 40.8398L20.6191 40.0098C19.1104 39.7998 18.124 39.1113 17.9141 38.3789H20.248V37.5098H14.3398V38.3789H16.6836C16.4736 39.1309 15.4922 39.7949 13.9785 40ZM19.0371 37.0996H20.1211V34.9902H21.3516V34.0918H20.1211V32.041H19.0371V37.0996ZM29.1738 32.041H28.0801V40.8691H29.1738V32.041ZM21.8594 38.4375L22.4258 39.3066C25.5166 37.8369 26.5371 35.6055 26.5371 32.9785H22.3086V33.8379H25.4336C25.2383 35.8447 24.1738 37.3389 21.8594 38.4375Z" fill="#8B8B8B"/>
<path d="M26 9.00002V15C26 17.5 25.5 19.25 24.38 20.38L18 14L25.73 6.27002C25.91 7.06002 26 7.96002 26 9.00002Z" stroke="#8B8B8B" stroke-width="1.5" stroke-linecap="round" stroke-linejoin="round"/>
<path d="M25.73 6.27L10.27 21.73C7.25999 21.04 6 18.96 6 15V9C6 4 8 2 13 2H19C22.96 2 25.04 3.26 25.73 6.27Z" stroke="#8B8B8B" stroke-width="1.5" stroke-linecap="round" stroke-linejoin="round"/>
<path d="M24.38 20.38C23.25 21.5 21.5 22 19 22H13C11.96 22 11.06 21.91 10.27 21.73L18 14L24.38 20.38Z" stroke="#8B8B8B" stroke-width="1.5" stroke-linecap="round" stroke-linejoin="round"/>
<path d="M10.2398 7.97997C10.9198 5.04997 15.3198 5.04997 15.9998 7.97997C16.3898 9.69997 15.3098 11.16 14.3598 12.06C13.6698 12.72 12.5798 12.72 11.8798 12.06C10.9298 11.16 9.83977 9.69997 10.2398 7.97997Z" stroke="#8B8B8B" stroke-width="1.5"/>
<path d="M13.0946 8.69995H13.1036" stroke="#8B8B8B" stroke-width="2" stroke-linecap="round" stroke-linejoin="round"/>
</svg>
