<svg width="22" height="22" viewBox="0 0 22 22" fill="none" xmlns="http://www.w3.org/2000/svg">
<path d="M5.50016 3.66683C7.031 2.521 8.93766 1.8335 11.0002 1.8335C16.0602 1.8335 20.1668 5.94016 20.1668 11.0002C20.1668 16.0602 16.0602 20.1668 11.0002 20.1668C5.94016 20.1668 1.8335 16.0602 1.8335 11.0002C1.8335 9.341 2.27348 7.78265 3.05265 6.43515L11.0002 11.0002" stroke="#2E2D2D" stroke-width="1.5" stroke-miterlimit="10" stroke-linecap="round" stroke-linejoin="round"/>
<path d="M6.26082 8.21333C5.77499 9.02916 5.5 9.9825 5.5 11C5.5 14.0342 7.96583 16.5 11 16.5C14.0342 16.5 16.5 14.0342 16.5 11C16.5 7.96583 14.0342 5.5 11 5.5C10.1658 5.5 9.36834 5.68334 8.66251 6.02251" stroke="#2E2D2D" stroke-width="1.5" stroke-miterlimit="10" stroke-linecap="round" stroke-linejoin="round"/>
</svg>
