<svg width="81" height="16" viewBox="0 0 81 16" fill="none" xmlns="http://www.w3.org/2000/svg">
<g clip-path="url(#clip0_1102_12043)">
<path d="M29.5447 0.444824V7.32059H24.6537C23.8574 7.32059 23.2088 6.67232 23.2088 5.86889V0.444824H19.272V5.88613C19.2823 8.86195 21.6848 11.2757 24.6537 11.2757H28.4429H29.5412C29.5412 11.8998 29.0367 12.4102 28.412 12.4102H20.4252V15.4998H29.2735C31.5937 15.4998 33.4746 13.6102 33.4746 11.2792V0.444824H29.5378H29.5447Z" fill="#F06A3C"/>
<path d="M12.2051 0C10.9111 0 9.72011 0.458614 8.7934 1.22757C7.86327 0.458614 6.67571 0 5.38175 0C2.40943 0 0 2.42066 0 5.40682V15.4998H3.93678V5.40682C3.93678 4.60683 4.58204 3.95512 5.38175 3.95512C6.18147 3.95512 6.82673 4.60338 6.82673 5.40682V15.4998H10.7635V5.40682C10.7635 4.60683 11.4088 3.95512 12.2085 3.95512C13.0082 3.95512 13.6535 4.60338 13.6535 5.40682V15.4998H17.5902V5.40682C17.5902 2.42066 15.1808 0 12.2085 0H12.2051Z" fill="#F06A3C"/>
<path d="M49.0536 5.85164C49.0536 2.86548 46.6442 0.444824 43.6719 0.444824H34.8647V15.4963H38.8015V11.255H43.6719C44.4682 11.255 45.1168 11.9033 45.1168 12.7067V15.4963H49.0536V12.6895C49.0502 11.3964 48.5937 10.2068 47.8318 9.27918C48.5937 8.34471 49.0536 7.15163 49.0536 5.85164ZM38.8015 7.30335V4.39994H43.6719C44.4682 4.39994 45.1168 5.04821 45.1168 5.85164C45.1168 6.65508 44.4716 7.30335 43.6719 7.30335H38.8015Z" fill="#F06A3C"/>
<path d="M54.8438 4.44486H64.358V0.489746H54.8198C52.2319 0.506987 50.1382 2.6173 50.1382 5.22071C50.1382 6.24829 50.4677 7.19655 51.0237 7.9724C50.4711 8.74825 50.1382 9.69651 50.1382 10.7241C50.1382 13.3206 52.225 15.4275 54.8026 15.4516H54.8438H64.358V11.4965H54.8438C54.4182 11.4965 54.0715 11.1482 54.0715 10.7206C54.0715 10.2931 54.4182 9.94479 54.8438 9.94479H62.6796V5.98967H54.8438C54.4182 5.98967 54.0715 5.6414 54.0715 5.21382C54.0715 4.78624 54.4182 4.43797 54.8438 4.43797V4.44486Z" fill="#F06A3C"/>
<path d="M76.7619 0.444765V11.1687C76.7619 11.5963 76.4152 11.9446 75.9896 11.9446C75.564 11.9446 75.2174 11.5963 75.2174 11.1687V4.79298C75.2174 2.18267 73.11 0.0620117 70.5083 0.0620117C67.9067 0.0620117 65.7993 2.17922 65.7993 4.79298V15.4514H69.7361V4.79298C69.7361 4.3654 70.0827 4.01713 70.5083 4.01713C70.9339 4.01713 71.2806 4.3654 71.2806 4.79298V11.1101C71.2806 13.7204 73.388 15.8997 75.9896 15.8997C78.5913 15.8997 80.6987 13.7825 80.6987 11.1687V0.444765H76.7619Z" fill="#F06A3C"/>
</g>
<defs>
<clipPath id="clip0_1102_12043">
<rect width="80.6989" height="15.8998" fill="white"/>
</clipPath>
</defs>
</svg>
