<svg width="94" height="110" viewBox="0 0 94 110" fill="none" xmlns="http://www.w3.org/2000/svg">
<g filter="url(#filter0_dd_1494_19498)">
<circle cx="51" cy="47" r="27" fill="white"/>
<circle cx="51" cy="47" r="26.5" stroke="#D3D1D1"/>
</g>
<path d="M42.8809 55.1191C45.1277 57.3149 47.834 58.4128 51 58.4128C54.166 58.4128 56.8468 57.3149 59.0426 55.1191C61.2894 52.8723 62.4128 50.166 62.4128 47C62.4128 43.834 61.2894 41.1532 59.0426 38.9574C56.8468 36.7106 54.166 35.5872 51 35.5872C47.834 35.5872 45.1277 36.7106 42.8809 38.9574C40.6851 41.1532 39.5872 43.834 39.5872 47C39.5872 50.166 40.6851 52.8723 42.8809 55.1191ZM65.6298 45.3915H69V48.6085H65.6298C65.2723 52.0298 63.8681 54.966 61.417 57.417C58.966 59.8681 56.0298 61.2723 52.6085 61.6298V65H49.3915V61.6298C45.9702 61.2723 43.034 59.8681 40.583 57.417C38.1319 54.966 36.7277 52.0298 36.3702 48.6085H33V45.3915H36.3702C36.7277 41.9702 38.1319 39.034 40.583 36.583C43.034 34.1319 45.9702 32.7277 49.3915 32.3702V29H52.6085V32.3702C56.0298 32.7277 58.966 34.1319 61.417 36.583C63.8681 39.034 65.2723 41.9702 65.6298 45.3915ZM46.4043 42.4043C47.6809 41.1277 49.2128 40.4894 51 40.4894C52.7872 40.4894 54.3191 41.1277 55.5957 42.4043C56.8723 43.6809 57.5106 45.2128 57.5106 47C57.5106 48.7872 56.8723 50.3191 55.5957 51.5957C54.3191 52.8723 52.7872 53.5106 51 53.5106C49.2128 53.5106 47.6809 52.8723 46.4043 51.5957C45.1277 50.3191 44.4894 48.7872 44.4894 47C44.4894 45.2128 45.1277 43.6809 46.4043 42.4043Z" fill="#5B5A59"/>
<path d="M42.8809 55.1191C45.1277 57.3149 47.834 58.4128 51 58.4128C54.166 58.4128 56.8468 57.3149 59.0426 55.1191C61.2894 52.8723 62.4128 50.166 62.4128 47C62.4128 43.834 61.2894 41.1532 59.0426 38.9574C56.8468 36.7106 54.166 35.5872 51 35.5872C47.834 35.5872 45.1277 36.7106 42.8809 38.9574C40.6851 41.1532 39.5872 43.834 39.5872 47C39.5872 50.166 40.6851 52.8723 42.8809 55.1191ZM65.6298 45.3915H69V48.6085H65.6298C65.2723 52.0298 63.8681 54.966 61.417 57.417C58.966 59.8681 56.0298 61.2723 52.6085 61.6298V65H49.3915V61.6298C45.9702 61.2723 43.034 59.8681 40.583 57.417C38.1319 54.966 36.7277 52.0298 36.3702 48.6085H33V45.3915H36.3702C36.7277 41.9702 38.1319 39.034 40.583 36.583C43.034 34.1319 45.9702 32.7277 49.3915 32.3702V29H52.6085V32.3702C56.0298 32.7277 58.966 34.1319 61.417 36.583C63.8681 39.034 65.2723 41.9702 65.6298 45.3915ZM46.4043 42.4043C47.6809 41.1277 49.2128 40.4894 51 40.4894C52.7872 40.4894 54.3191 41.1277 55.5957 42.4043C56.8723 43.6809 57.5106 45.2128 57.5106 47C57.5106 48.7872 56.8723 50.3191 55.5957 51.5957C54.3191 52.8723 52.7872 53.5106 51 53.5106C49.2128 53.5106 47.6809 52.8723 46.4043 51.5957C45.1277 50.3191 44.4894 48.7872 44.4894 47C44.4894 45.2128 45.1277 43.6809 46.4043 42.4043Z" stroke="#D3D1D1"/>
<defs>
<filter id="filter0_dd_1494_19498" x="0" y="0" width="110" height="110" filterUnits="userSpaceOnUse" color-interpolation-filters="sRGB">
<feFlood flood-opacity="0" result="BackgroundImageFix"/>
<feColorMatrix in="SourceAlpha" type="matrix" values="0 0 0 0 0 0 0 0 0 0 0 0 0 0 0 0 0 0 127 0" result="hardAlpha"/>
<feOffset dy="4"/>
<feGaussianBlur stdDeviation="6"/>
<feComposite in2="hardAlpha" operator="out"/>
<feColorMatrix type="matrix" values="0 0 0 0 0 0 0 0 0 0 0 0 0 0 0 0 0 0 0.16 0"/>
<feBlend mode="normal" in2="BackgroundImageFix" result="effect1_dropShadow_1494_19498"/>
<feColorMatrix in="SourceAlpha" type="matrix" values="0 0 0 0 0 0 0 0 0 0 0 0 0 0 0 0 0 0 127 0" result="hardAlpha"/>
<feOffset dx="4" dy="8"/>
<feGaussianBlur stdDeviation="14"/>
<feComposite in2="hardAlpha" operator="out"/>
<feColorMatrix type="matrix" values="0 0 0 0 0 0 0 0 0 0 0 0 0 0 0 0 0 0 0.08 0"/>
<feBlend mode="normal" in2="effect1_dropShadow_1494_19498" result="effect2_dropShadow_1494_19498"/>
<feBlend mode="normal" in="SourceGraphic" in2="effect2_dropShadow_1494_19498" result="shape"/>
</filter>
</defs>
</svg>
