<svg width="18" height="18" viewBox="0 0 18 18" fill="none" xmlns="http://www.w3.org/2000/svg">
<path d="M16.3199 11.94L11.5199 3.3C10.8749 2.1375 9.98236 1.5 8.99986 1.5C8.01736 1.5 7.12486 2.1375 6.47986 3.3L1.67986 11.94C1.07236 13.0425 1.00486 14.1 1.49236 14.9325C1.97986 15.765 2.93986 16.2225 4.19986 16.2225H13.7999C15.0599 16.2225 16.0199 15.765 16.5074 14.9325C16.9949 14.1 16.9274 13.035 16.3199 11.94ZM8.43736 6.75C8.43736 6.4425 8.69236 6.1875 8.99986 6.1875C9.30736 6.1875 9.56236 6.4425 9.56236 6.75V10.5C9.56236 10.8075 9.30736 11.0625 8.99986 11.0625C8.69236 11.0625 8.43736 10.8075 8.43736 10.5V6.75ZM9.53236 13.2825C9.49486 13.3125 9.45736 13.3425 9.41986 13.3725C9.37486 13.4025 9.32986 13.425 9.28486 13.44C9.23986 13.4625 9.19486 13.4775 9.14236 13.485C9.09736 13.4925 9.04486 13.5 8.99986 13.5C8.95486 13.5 8.90236 13.4925 8.84986 13.485C8.80486 13.4775 8.75986 13.4625 8.71486 13.44C8.66986 13.425 8.62486 13.4025 8.57986 13.3725C8.54236 13.3425 8.50486 13.3125 8.46736 13.2825C8.33236 13.14 8.24986 12.945 8.24986 12.75C8.24986 12.555 8.33236 12.36 8.46736 12.2175C8.50486 12.1875 8.54236 12.1575 8.57986 12.1275C8.62486 12.0975 8.66986 12.075 8.71486 12.06C8.75986 12.0375 8.80486 12.0225 8.84986 12.015C8.94736 11.9925 9.05236 11.9925 9.14236 12.015C9.19486 12.0225 9.23986 12.0375 9.28486 12.06C9.32986 12.075 9.37486 12.0975 9.41986 12.1275C9.45736 12.1575 9.49486 12.1875 9.53236 12.2175C9.66736 12.36 9.74986 12.555 9.74986 12.75C9.74986 12.945 9.66736 13.14 9.53236 13.2825Z" fill="#B6B3B2"/>
</svg>
